<mxfile host="app.diagrams.net" modified="2024-07-25T12:10:15.659Z" agent="Mozilla/5.0 (Macintosh; Intel Mac OS X 10_15_7) AppleWebKit/537.36 (KHTML, like Gecko) Chrome/126.0.0.0 Safari/537.36" version="24.7.1" etag="tmuSZkIq5Da5wxIOOygt" type="github">
  <diagram name="第 1 页" id="2nmtXIWGrHBHvsm2WspH">
    <mxGraphModel>
      <root>
        <mxCell id="0" />
        <mxCell id="1" parent="0" />
      </root>
    </mxGraphModel>
  </diagram>
</mxfile>
